<?xml version="1.0" encoding="UTF-8"?>
<svg width="150px" height="815px" viewBox="0 0 150 815" version="1.1" xmlns="http://www.w3.org/2000/svg" xmlns:xlink="http://www.w3.org/1999/xlink">
    <title>Left Banner</title>
    <defs>
        <path d="M78.06,128.12 L78.06,97.58 L101.88,97.58 L101.88,92.06 L78.06,92.06 L78.06,72.92 L72.3,72.92 L72.3,92.06 L48.24,92.06 L48.24,97.58 L72.3,97.58 L72.3,128.12 L78.06,128.12 Z M50.34,228 C62.94,219.84 71.22,209.52 75.18,197.04 C79.74,209.88 87.78,220.2 99.3,227.88 L103.08,222.9 C89.4,214.5 80.76,202.32 77.28,186.36 C77.52,182.64 77.7,178.2 77.7,172.92 L71.94,172.92 C71.94,175.2 71.88,178.32 71.88,182.34 C71.4,199.56 63.06,213.06 46.86,222.9 L50.34,228 Z M78.06,328.12 L78.06,297.58 L101.88,297.58 L101.88,292.06 L78.06,292.06 L78.06,272.92 L72.3,272.92 L72.3,292.06 L48.24,292.06 L48.24,297.58 L72.3,297.58 L72.3,328.12 L78.06,328.12 Z M93,427.22 C96.72,427.1 99.12,425.66 100.2,422.9 C100.8,421.22 101.4,418.46 101.88,414.56 L96.3,412.76 C95.82,416.72 95.28,419.12 94.8,419.96 C94.2,421.04 92.94,421.58 91.08,421.7 L63.24,421.7 C61.44,421.7 60.48,420.8 60.48,419.06 L60.48,409.7 L97.38,409.7 L97.38,389.54 L84.36,389.54 C86.22,387.5 88.14,385.1 90.06,382.28 L90.06,377.96 L68.82,377.96 C69.84,376.64 70.86,375.2 71.82,373.7 L66,372.44 C60.78,379.76 54.54,385.52 47.22,389.66 L51.06,394.28 C52.26,393.5 53.46,392.66 54.72,391.82 L54.72,421.28 C54.72,425.24 56.76,427.22 60.84,427.22 L93,427.22 Z M76.8,389.54 L57.66,389.54 C60.06,387.62 62.4,385.46 64.56,383.12 L82.68,383.12 C80.64,385.58 78.72,387.74 76.8,389.54 Z M73.26,404.3 L60.48,404.3 L60.48,394.88 L73.26,394.88 L73.26,404.3 Z M91.62,404.3 L78.96,404.3 L78.96,394.88 L91.62,394.88 L91.62,404.3 Z" id="path-1"></path>
        <filter x="-5.3%" y="-0.8%" width="119.6%" height="103.4%" filterUnits="objectBoundingBox" id="filter-2">
            <feOffset dx="5" dy="6" in="SourceAlpha" result="shadowOffsetOuter1"></feOffset>
            <feColorMatrix values="0 0 0 0 0   0 0 0 0 0   0 0 0 0 0  0 0 0 1 0" type="matrix" in="shadowOffsetOuter1"></feColorMatrix>
        </filter>
    </defs>
    <g id="Page-1" stroke="none" stroke-width="1" fill="none" fill-rule="evenodd">
        <g id="Artboard" transform="translate(-11.000000, 0.000000)">
            <g id="Left-Banner" transform="translate(11.000000, 0.000000)">
                <g id="Group" transform="translate(0.000000, 315.000000)">
                    <rect id="Rectangle-Copy-2" fill="#F7073E" x="0" y="0" width="150" height="500"></rect>
                    <g id="十人十色" fill-rule="nonzero">
                        <use fill="black" fill-opacity="1" filter="url(#filter-2)" xlink:href="#path-1"></use>
                        <use fill="#FFFFFF" xlink:href="#path-1"></use>
                    </g>
                </g>
                <rect id="Rectangle-Copy" fill="#F9CCD2" x="73" y="0" width="4" height="336"></rect>
                <circle id="Oval-Copy-3" stroke="#F9CCD2" stroke-width="4" fill="#FEF5F4" cx="75" cy="345" r="8"></circle>
            </g>
        </g>
    </g>
</svg>