<?xml version="1.0" encoding="UTF-8"?>
<svg width="150px" height="815px" viewBox="0 0 150 815" version="1.1" xmlns="http://www.w3.org/2000/svg" xmlns:xlink="http://www.w3.org/1999/xlink">
    <title>banner-right</title>
    <defs>
        <path d="M74.34,102.8 C80.04,98.6 83.28,92.3 84.12,83.9 L88.5,83.9 L88.5,94.82 C88.5,99.32 90.54,101.6 94.68,101.6 L96.42,101.6 C99.48,101.6 101.28,100.46 101.88,98.24 C102.24,97.28 102.54,94.88 102.9,90.92 L98.04,89.42 C98.04,91.34 97.98,93.14 97.86,94.88 C97.62,96.02 97.14,96.62 96.36,96.62 L95.52,96.62 C94.32,96.62 93.78,95.72 93.78,94.04 L93.78,79.04 L84.3,79.04 L84.3,73.52 L79.02,73.52 L79.02,79.04 L72.54,79.04 L72.54,83.9 L78.84,83.9 C78.12,90.74 75.24,95.84 70.32,99.26 L74.34,102.8 Z M53.52,127.34 L53.52,124.4 L65.64,124.4 L65.64,127.34 L70.26,127.34 L70.26,85.4 L64.8,85.4 L64.8,79.52 L71.16,79.52 L71.16,74.6 L47.76,74.6 L47.76,79.52 L54.36,79.52 L54.36,85.4 L48.9,85.4 L48.9,127.34 L53.52,127.34 Z M60.66,85.4 L58.56,85.4 L58.56,79.52 L60.66,79.52 L60.66,85.4 Z M53.52,103.64 L53.52,90.32 L55.56,90.32 L55.56,93.86 C55.5,97.94 54.84,101.24 53.52,103.64 Z M65.64,109.46 L53.52,109.46 L53.52,106.4 L55.08,107.78 C57.42,104.84 58.62,100.22 58.68,93.86 L58.68,90.32 L60.42,90.32 L60.42,100.82 C60.42,103.7 61.56,105.2 63.9,105.2 L65.64,105.2 L65.64,109.46 Z M65.64,101.48 L64.86,101.48 C63.96,101.48 63.54,100.88 63.54,99.8 L63.54,90.32 L65.64,90.32 L65.64,101.48 Z M88.2,127.76 L88.2,113.96 L101.88,113.96 L101.88,108.74 L88.2,108.74 L88.2,101.24 L82.68,101.24 L82.68,108.74 L71.22,108.74 L71.22,113.96 L82.68,113.96 L82.68,127.76 L88.2,127.76 Z M65.64,119.48 L53.52,119.48 L53.52,114.08 L65.64,114.08 L65.64,119.48 Z M102,226.14 L102,220.5 L78.9,220.5 L78.9,206.82 L96.96,206.82 L96.96,201.3 L78.9,201.3 L78.9,188.88 L98.16,188.88 L98.16,183.36 L78.9,183.36 L78.9,173.28 L73.2,173.28 L73.2,183.36 L62.04,183.36 C62.76,180.96 63.42,178.38 64.02,175.62 L58.2,174.6 C56.28,184.26 52.62,191.94 47.22,197.64 L50.94,202.38 C54.6,198.78 57.6,194.28 60,188.88 L73.2,188.88 L73.2,201.3 L56.04,201.3 L56.04,206.82 L73.2,206.82 L73.2,220.5 L48.78,220.5 L48.78,226.14 L102,226.14 Z M67.74,282.52 L67.74,280.48 L82.26,280.48 L82.26,282.52 L88.02,282.52 L88.02,280.48 L101.58,280.48 L101.58,275.32 L88.02,275.32 L88.02,272.62 L82.26,272.62 L82.26,275.32 L67.74,275.32 L67.74,272.62 L61.98,272.62 L61.98,275.32 L48.42,275.32 L48.42,280.48 L61.98,280.48 L61.98,282.52 L67.74,282.52 Z M97.5,296.92 L97.5,283.78 L53.16,283.78 L53.16,296.92 L97.5,296.92 Z M92.22,292.54 L84.12,292.54 L84.12,288.16 L92.22,288.16 L92.22,292.54 Z M79.08,292.54 L71.34,292.54 L71.34,288.16 L79.08,288.16 L79.08,292.54 Z M66.36,292.54 L58.38,292.54 L58.38,288.16 L66.36,288.16 L66.36,292.54 Z M52.98,328.3 C74.94,326.74 88.26,321.34 92.82,311.98 L92.82,307.78 L71.88,307.78 C72.96,306.82 74.04,305.74 75.06,304.66 L70.02,303.58 L95.28,303.58 L95.28,309.1 L100.86,309.1 L100.86,299.08 L49.2,299.08 L49.2,309.1 L54.72,309.1 L54.72,303.58 L69.66,303.58 C65.04,307.24 59.52,310.06 53.04,312.1 L56.46,316.3 C59.46,315.22 62.28,313.96 64.86,312.58 L86.7,312.58 C84.3,315.34 80.52,317.68 75.42,319.48 C72.9,317.62 69.84,315.76 66.36,313.96 L62.82,317.38 C65.1,318.7 67.14,320.02 68.94,321.28 C63.78,322.42 57.6,323.2 50.4,323.62 L52.98,328.3 Z M50.88,428.24 C64.56,421.82 72.72,410.42 75.36,393.98 L75.36,389.06 L62.28,389.06 C63.12,386.54 63.78,383.84 64.38,380.96 L78.66,380.96 L78.66,420.86 C78.66,424.88 80.58,426.92 84.48,426.92 L94.38,426.92 C96.9,426.92 98.82,426.32 100.02,425.12 C101.34,423.86 102.24,419.96 102.78,413.36 L97.62,411.74 C97.38,416.48 96.9,419.3 96.18,420.26 C95.58,421.1 94.62,421.58 93.36,421.58 L86.22,421.58 C84.78,421.58 84.12,420.92 84.12,419.66 L84.12,404.36 C89.64,402.26 95.52,399.2 101.64,395.18 L98.34,390.56 C93.84,394.1 89.1,396.86 84.12,398.9 L84.12,380.96 L101.7,380.96 L101.7,375.44 L48.3,375.44 L48.3,380.96 L58.74,380.96 C56.82,390.56 52.98,397.76 47.16,402.62 L49.92,407.48 C54.12,404.24 57.54,399.92 60.18,394.4 L69.9,394.4 C68.94,398.78 67.56,402.8 65.7,406.4 C63.78,404.48 61.62,402.62 59.16,400.7 L55.38,404.36 C58.38,406.64 60.9,408.8 62.94,410.9 C59.22,416.12 54.24,420.2 48.06,423.14 L50.88,428.24 Z" id="path-1"></path>
        <filter x="-5.4%" y="-0.8%" width="119.7%" height="103.4%" filterUnits="objectBoundingBox" id="filter-2">
            <feOffset dx="5" dy="6" in="SourceAlpha" result="shadowOffsetOuter1"></feOffset>
            <feColorMatrix values="0 0 0 0 0   0 0 0 0 0   0 0 0 0 0  0 0 0 1 0" type="matrix" in="shadowOffsetOuter1"></feColorMatrix>
        </filter>
    </defs>
    <g id="Page-1" stroke="none" stroke-width="1" fill="none" fill-rule="evenodd">
        <g id="banner-right">
            <g id="Group-Copy" transform="translate(0.000000, 315.000000)">
                <rect id="Rectangle-Copy-2" fill="#F7073E" x="0" y="0" width="150" height="500" rx="3"></rect>
                <g id="酔生夢死" fill-rule="nonzero">
                    <use fill="black" fill-opacity="1" filter="url(#filter-2)" xlink:href="#path-1"></use>
                    <use fill="#FFFFFF" xlink:href="#path-1"></use>
                </g>
            </g>
            <rect id="Rectangle" fill="#F9CCD2" x="73" y="0" width="4" height="336"></rect>
            <circle id="Oval-Copy-2" stroke="#F9CCD2" stroke-width="4" fill="#FEF5F4" cx="75" cy="345" r="8"></circle>
        </g>
    </g>
</svg>